HIERARCHY
ROOT joint_0
{
	OFFSET 0.000000 0.000000 0.000000
	CHANNELS 6 Xposition Yposition Zposition Zrotation Yrotation Xrotation 
	JOINT joint_1
	{
		OFFSET 1.363060 -1.794630 0.839290
		CHANNELS 3 Zrotation Yrotation Xrotation
		JOINT joint_2
		{
			OFFSET 2.448110 -6.726130 0.000000
			CHANNELS 3 Zrotation Yrotation Xrotation
			JOINT joint_3
			{
				OFFSET 2.562200 -7.039590 0.000000
				CHANNELS 3 Zrotation Yrotation Xrotation
				JOINT joint_4
				{
					OFFSET 0.157640 -0.433110 2.322550
					CHANNELS 3 Zrotation Yrotation Xrotation
					End Site
					{
						OFFSET 0.000000 0.000000 0.000000
					}
				}
			}
		}
	}
	JOINT joint_5
	{
		OFFSET -1.305520 -1.794630 0.839290
		CHANNELS 3 Zrotation Yrotation Xrotation
		JOINT joint_6
		{
			OFFSET -2.542530 -6.985550 0.000000
			CHANNELS 3 Zrotation Yrotation Xrotation
			JOINT joint_7
			{
				OFFSET -2.568260 -7.056230 0.000000
				CHANNELS 3 Zrotation Yrotation Xrotation
				JOINT joint_8
				{
					OFFSET -0.164730 -0.452590 2.363150
					CHANNELS 3 Zrotation Yrotation Xrotation
					End Site
					{
						OFFSET 0.000000 0.000000 0.000000
					}
				}
			}
		}
	}
	JOINT joint_9
	{
		OFFSET 0.028270 2.035590 -0.193380
		CHANNELS 3 Zrotation Yrotation Xrotation
		JOINT joint_10
		{
			OFFSET 0.056720 2.048850 -0.042750
			CHANNELS 3 Zrotation Yrotation Xrotation
			JOINT joint_11
			{
				OFFSET -0.054170 1.746240 0.172020
				CHANNELS 3 Zrotation Yrotation Xrotation
				JOINT joint_12
				{
					OFFSET 0.104070 1.761360 -0.123970
					CHANNELS 3 Zrotation Yrotation Xrotation
					End Site
					{
						OFFSET 0.000000 0.000000 0.000000
					}
				}
			}
			JOINT joint_13
			{
				OFFSET 3.362410 1.200890 -0.311210
				CHANNELS 3 Zrotation Yrotation Xrotation
				JOINT joint_14
				{
					OFFSET 4.983000 -0.000000 -0.000000
					CHANNELS 3 Zrotation Yrotation Xrotation
					JOINT joint_15
					{
						OFFSET 3.483560 -0.000000 -0.000000
						CHANNELS 3 Zrotation Yrotation Xrotation
						JOINT joint_16
						{
							OFFSET 0.000000 0.000000 0.000000
							CHANNELS 3 Zrotation Yrotation Xrotation
							End Site
							{
								OFFSET 0.000000 0.000000 0.000000
							}
						}
					}
				}
			}
			JOINT joint_17
			{
				OFFSET -3.136600 1.374050 -0.404650
				CHANNELS 3 Zrotation Yrotation Xrotation
				JOINT joint_18
				{
					OFFSET -5.241900 -0.000000 -0.000000
					CHANNELS 3 Zrotation Yrotation Xrotation
					JOINT joint_19
					{
						OFFSET -3.444170 -0.000000 -0.000000
						CHANNELS 3 Zrotation Yrotation Xrotation
						JOINT joint_20
						{
							OFFSET 0.000000 0.000000 0.000000
							CHANNELS 3 Zrotation Yrotation Xrotation
							End Site
							{
								OFFSET 0.000000 0.000000 0.000000
							}
						}
					}
				}
			}
		}
	}
}
MOTION
Frames: 11
Frame Time: 0.031667
-9.504039 13.213994 1.398569 -12.802456 78.930977 -3.364663 -16.187622 -4.622547 -61.063537 -14.256846 47.542403 25.590765 -14.978557 0.410447 22.058516 3.061310 2.584470 16.321869 37.516197 33.906500 30.000588 -14.157657 -17.486913 74.779056 40.421432 12.121758 -55.758727 -14.045729 -1.765016 11.713568 -1.682406 -21.281189 -7.169428 -1.569628 -7.644314 -1.032417 -13.914295 12.904941 51.001668 7.139015 -1.460208 -1.516680 -178.401954 -60.844058 -104.074668 -128.874627 -59.912133 141.241470 -3.742779 25.057247 30.160558 -7.067183 -0.153265 0.342310 92.187400 79.863444 103.039232 125.291325 42.379461 136.909429 -12.359782 -21.147917 -32.043976 8.486961 0.270391 -0.147593 
-9.044865 13.234505 1.380784 -15.252708 78.662460 -5.019760 -9.786288 -20.192230 -88.113887 -41.143851 37.859366 50.088813 -34.283305 18.442481 -1.219129 4.807345 0.296965 10.745091 22.889895 33.565684 9.139708 -5.496463 -31.242726 98.268589 -27.197875 5.498437 -37.040041 -15.410085 -2.690388 11.880315 19.996453 -19.837753 22.077074 6.388559 -28.747686 20.039934 23.853307 17.172065 44.930159 7.194089 -2.695824 7.873178 -102.121275 -52.327877 -92.891319 -117.714993 -53.070592 123.822732 -5.130322 10.433587 11.906629 -6.837110 -0.119311 0.309480 -21.537039 70.174929 -138.907987 88.839596 34.943543 98.669495 -7.700967 -1.845468 -15.692787 7.972978 0.213367 -0.288552 
-8.582102 13.253814 1.375227 -16.009581 78.725639 -5.274573 -58.179743 -26.586472 -95.780836 2.794549 27.161758 52.362139 -43.364028 2.964825 -19.630051 3.380463 2.284258 17.286604 72.109107 41.209222 -26.080562 -43.614224 -50.799559 76.713741 -5.989191 13.193767 16.664960 -13.594544 -1.949348 7.962629 8.562483 -23.655385 40.820229 24.999329 4.530944 42.083794 36.323677 0.461926 32.198263 4.939563 -5.263017 6.749237 -91.972249 -76.248743 157.777551 -152.393376 -60.253205 144.933215 -7.693871 10.965548 29.948689 -6.134888 -0.104472 0.076376 -167.853029 47.151359 -173.884899 89.193837 54.273798 99.637511 9.244132 6.490867 -7.254691 6.720757 0.084646 -0.571405 
-8.108243 13.300405 1.390545 -14.743326 79.047958 -3.570675 -74.773448 12.262807 -24.141042 -21.236183 -0.914419 42.383072 74.852309 6.829334 -13.937895 0.131505 2.693421 18.257172 104.665901 14.257703 -54.722048 -12.658197 -13.387827 37.637266 -42.251188 15.370543 49.054675 -9.630452 0.875593 -1.375849 33.385230 -15.650547 17.394366 4.534102 -6.337764 35.523606 15.188189 -5.876361 64.293643 -2.996894 -8.436702 -5.751195 -31.383913 -86.583023 165.102082 5.264076 -75.613548 -2.527381 -24.073582 13.215292 41.515495 -5.758171 -0.135325 0.082415 -77.277766 85.075117 -152.365454 -89.731713 66.516576 -39.755936 -41.917670 -0.255348 -43.133601 5.989410 0.023582 -0.741846 
-7.625435 13.354099 1.398971 -12.545284 79.557106 -1.045868 -116.802136 27.855547 -51.569704 -20.145112 3.122168 7.335229 135.274874 7.958721 -1.889941 -1.081271 2.759970 17.937991 88.963733 5.475431 -19.106117 -21.211287 -1.388654 16.196713 96.560345 36.644535 94.061882 -5.605683 -0.978923 2.937727 20.069830 -8.415229 25.566257 21.601049 -13.443683 52.961727 -6.877483 -4.502013 55.433293 -3.210977 -8.966948 -18.863965 -118.157341 -67.604680 127.301548 -12.069949 -32.500472 -26.505763 -4.242251 -17.797550 53.296246 -5.768505 -0.195266 0.106420 -151.703286 68.628479 100.015678 -26.060003 67.111526 -16.073102 -43.918065 -13.414075 -79.884397 6.086131 0.060134 -0.668031 
-7.136471 13.432327 1.396847 -12.834898 80.075310 -0.522212 -104.772049 -1.969976 -74.093919 -30.096624 -2.674649 37.420728 -131.764257 31.208941 -58.686515 1.981236 1.194115 13.262567 85.873831 20.744360 1.905578 -4.417310 4.621183 24.847707 13.142191 -14.007179 57.629018 -3.590149 -6.266705 16.205944 35.460734 -4.776428 -14.115791 33.834445 -0.083279 2.671223 -2.907614 11.354927 38.588301 6.928123 -10.753517 -23.978496 -96.027838 -80.793428 -164.888736 60.579618 -54.671706 -63.252073 9.102178 -11.396403 52.872573 -5.828762 -0.251351 0.380449 139.611367 67.111924 26.668919 -36.415242 76.329194 -1.900302 -27.241651 0.477061 -48.854912 6.613217 0.223627 -0.456830 
-6.670526 13.501952 1.377144 -15.472880 80.590347 -2.654320 -57.875656 -50.702383 12.644132 -17.068663 30.447242 73.329601 -89.089327 -11.512892 -54.187466 8.692959 -1.129353 5.414360 67.862731 70.440731 -47.920911 -34.448708 -40.868929 116.532098 -80.846388 -14.874154 11.308146 -4.336726 -11.585552 30.677907 4.776492 22.948461 -23.604939 17.734735 12.898396 -27.900293 1.377291 -2.797265 37.717595 20.062542 -9.972869 -13.002179 -115.335696 -82.987593 96.415574 121.638825 -89.480464 -85.477441 16.091098 1.474289 60.554312 -6.353503 -0.201255 0.645605 27.265933 85.227895 11.993561 119.042508 59.516938 139.514911 -30.453344 -8.884182 85.608006 7.577406 0.365837 -0.255981 
-6.211817 13.555721 1.369746 -18.887506 81.359276 -5.776923 -23.296151 -65.921359 -44.731162 -23.928873 31.514459 92.826335 -146.470442 0.129461 3.084203 14.962829 -5.156310 -9.964343 67.061741 73.771937 -56.029801 -14.921682 -34.981900 107.054705 -49.321452 -33.017056 -6.931767 -3.822584 -15.153044 40.170696 4.052001 7.362446 -3.674121 18.852774 -0.071178 -28.408270 36.200194 -14.564914 45.435542 22.506344 -9.940695 -2.050794 -40.722170 -75.639579 46.376023 -27.583769 -77.637847 88.378046 -16.247900 15.097986 69.887083 -6.607758 -0.054867 0.564465 -47.816479 77.162862 -64.711553 77.317996 51.952531 102.365918 6.455598 -10.175779 33.636523 7.980618 0.360393 -0.199474 
-5.754084 13.606577 1.388607 -22.488663 82.385277 -9.056768 -20.678936 -44.313485 -36.343560 -32.270803 31.432602 57.303737 -157.286621 -3.293936 18.546776 16.020463 -9.937793 -25.562862 72.351340 64.900328 -25.752696 7.403795 -33.751701 106.043871 -56.036484 -40.376858 13.584840 -1.249232 -15.345710 39.046583 21.028144 10.140566 -6.010838 9.380614 3.546980 -38.373191 15.075629 -8.948951 37.107410 14.297943 -10.240390 -2.767310 -133.727698 -75.401254 150.591231 89.705102 -70.034431 -43.441834 6.444403 14.765667 79.526242 -6.717595 0.080438 0.554519 84.444171 68.169572 18.663255 84.620793 72.774103 117.133238 -4.287752 -7.590862 6.793258 8.041831 0.326458 -0.233866 
-5.301321 13.663393 1.430833 -25.437986 83.286415 -11.655134 -52.083918 -24.336389 -19.700514 -35.448829 14.582729 32.693496 -72.630169 -5.825857 -43.326339 13.649519 -10.877610 -29.151206 81.390904 34.600512 -48.175906 16.770759 -27.339869 66.942595 -9.607239 -28.969855 -0.676624 1.991404 -13.943961 34.120900 3.739620 4.408084 -30.784404 10.663635 4.802574 -11.970099 10.466905 -16.841175 49.429625 10.592665 -11.062273 -8.786460 -15.053745 -74.093721 22.313024 45.517907 -54.174059 8.221765 -15.955803 11.081815 51.866711 -6.688522 0.152201 0.486984 59.977334 75.053754 -173.339838 -39.744218 70.168924 -49.158265 4.198856 -20.079226 33.582623 7.834545 0.225482 -0.253354 
-4.854264 13.730706 1.477207 -27.362179 84.278252 -13.071217 -82.268215 -3.925812 -77.927998 -38.656743 2.532838 18.367723 -12.756726 -22.883478 38.712276 11.632170 -9.789070 -25.852160 25.873936 11.446976 -9.396862 21.670604 -6.633174 51.722454 -22.751674 -13.589285 -33.889565 4.193925 -14.625399 34.510801 26.120476 3.422029 -10.233052 23.641684 -8.175480 7.217434 21.249181 -3.410450 53.915208 16.945665 -9.718316 -15.205695 151.128703 -71.165797 48.980454 4.018240 -29.967711 -5.328503 -9.219645 22.117998 14.386144 -6.707454 0.110968 0.605204 84.036161 74.668168 -55.972686 -21.355259 46.185213 -32.979784 -19.569537 -5.652677 1.355350 7.831283 0.160107 -0.185507 
